<svg xmlns="http://www.w3.org/2000/svg" xmlns:xlink="http://www.w3.org/1999/xlink" version="1.1" data-diagram-type="CLASS" style="width:1030px;height:703px;background:#FFFFFF;" width="1030px" height="703px" viewBox="0 0 1030 703" zoomAndPan="magnify" preserveAspectRatio="none" contentStyleType="text/css"><?plantuml 1.2026.7beta3?><defs/><g><!--class user--><g class="entity" data-qualified-name="user" id="ent0001" data-source-line="7"><rect x="225.47" y="147.59" width="233.7715" height="178.375" fill="#F1F1F1" style="stroke:#181818;stroke-width:0.5;" rx="2.5" ry="2.5"/><ellipse cx="322.1507" cy="163.59" rx="11" ry="11" fill="#ADD1B2" style="stroke:#181818;stroke-width:1;"/><path d="M326.26,169.59 L318.5413,169.59 L318.5413,157.1994 L326.26,157.1994 L326.26,159.3556 L320.9944,159.3556 L320.9944,162.0275 L325.76,162.0275 L325.76,164.1838 L320.9944,164.1838 L320.9944,167.4338 L326.26,167.4338 L326.26,169.59 Z " fill="#000000"/><text x="342.6507" y="168.4367" fill="#000000" font-size="14" lengthAdjust="spacing" textLength="31.9102" font-family="sans-serif">User</text><line x1="226.47" y1="179.59" x2="458.2415" y2="179.59" style="stroke:#181818;stroke-width:0.5;"/><g data-visibility-modifier="IE_MANDATORY"><ellipse cx="236.47" cy="193.2384" rx="3" ry="3" fill="#000000" style="stroke:#000000;stroke-width:1;"/></g><text x="245.47" y="196.5851" fill="#000000" font-size="14" lengthAdjust="spacing" textLength="99.7227" font-family="sans-serif">id : Long «PK»</text><line x1="226.47" y1="203.8869" x2="458.2415" y2="203.8869" style="stroke:#181818;stroke-width:1;"/><g data-visibility-modifier="IE_MANDATORY"><ellipse cx="236.47" cy="217.5353" rx="3" ry="3" fill="#000000" style="stroke:#000000;stroke-width:1;"/></g><text x="245.47" y="220.882" fill="#000000" font-size="14" lengthAdjust="spacing" textLength="95.1016" font-family="sans-serif">name : String</text><g data-visibility-modifier="IE_MANDATORY"><ellipse cx="236.47" cy="233.8322" rx="3" ry="3" fill="#000000" style="stroke:#000000;stroke-width:1;"/></g><text x="245.47" y="237.1789" fill="#000000" font-size="14" lengthAdjust="spacing" textLength="163.5977" font-family="sans-serif">email : String «unique»</text><g data-visibility-modifier="IE_MANDATORY"><ellipse cx="236.47" cy="250.1291" rx="3" ry="3" fill="#000000" style="stroke:#000000;stroke-width:1;"/></g><text x="245.47" y="253.4757" fill="#000000" font-size="14" lengthAdjust="spacing" textLength="122.1104" font-family="sans-serif">password : String</text><g data-visibility-modifier="IE_MANDATORY"><ellipse cx="236.47" cy="266.4259" rx="3" ry="3" fill="#000000" style="stroke:#000000;stroke-width:1;"/></g><text x="245.47" y="269.7726" fill="#000000" font-size="14" lengthAdjust="spacing" textLength="103.1475" font-family="sans-serif">role : UserRole</text><g data-visibility-modifier="IE_MANDATORY"><ellipse cx="236.47" cy="282.7228" rx="3" ry="3" fill="#000000" style="stroke:#000000;stroke-width:1;"/></g><text x="245.47" y="286.0695" fill="#000000" font-size="14" lengthAdjust="spacing" textLength="146.7744" font-family="sans-serif">maxBorrowLimit : int</text><g data-visibility-modifier="IE_MANDATORY"><ellipse cx="236.47" cy="299.0197" rx="3" ry="3" fill="#000000" style="stroke:#000000;stroke-width:1;"/></g><text x="245.47" y="302.3664" fill="#000000" font-size="14" lengthAdjust="spacing" textLength="125.9316" font-family="sans-serif">enabled : boolean</text><g data-visibility-modifier="IE_MANDATORY"><ellipse cx="236.47" cy="315.3166" rx="3" ry="3" fill="#000000" style="stroke:#000000;stroke-width:1;"/></g><text x="245.47" y="318.6632" fill="#000000" font-size="14" lengthAdjust="spacing" textLength="207.7715" font-family="sans-serif">profile_id : Long «FK, unique»</text></g><!--class profile--><g class="entity" data-qualified-name="profile" id="ent0002" data-source-line="19"><rect x="136.63" y="410.41" width="181.4492" height="96.8906" fill="#F1F1F1" style="stroke:#181818;stroke-width:0.5;" rx="2.5" ry="2.5"/><ellipse cx="185.1071" cy="426.41" rx="11" ry="11" fill="#ADD1B2" style="stroke:#181818;stroke-width:1;"/><path d="M189.2164,432.41 L181.4977,432.41 L181.4977,420.0194 L189.2164,420.0194 L189.2164,422.1756 L183.9508,422.1756 L183.9508,424.8475 L188.7164,424.8475 L188.7164,427.0037 L183.9508,427.0037 L183.9508,430.2537 L189.2164,430.2537 L189.2164,432.41 Z " fill="#000000"/><text x="205.6071" y="431.2567" fill="#000000" font-size="14" lengthAdjust="spacing" textLength="75.9951" font-family="sans-serif">UserProfile</text><line x1="137.63" y1="442.41" x2="317.0792" y2="442.41" style="stroke:#181818;stroke-width:0.5;"/><g data-visibility-modifier="IE_MANDATORY"><ellipse cx="147.63" cy="456.0584" rx="3" ry="3" fill="#000000" style="stroke:#000000;stroke-width:1;"/></g><text x="156.63" y="459.4051" fill="#000000" font-size="14" lengthAdjust="spacing" textLength="99.7227" font-family="sans-serif">id : Long «PK»</text><line x1="137.63" y1="466.7069" x2="317.0792" y2="466.7069" style="stroke:#181818;stroke-width:1;"/><g data-visibility-modifier="IE_MANDATORY"><ellipse cx="147.63" cy="480.3553" rx="3" ry="3" fill="#000000" style="stroke:#000000;stroke-width:1;"/></g><text x="156.63" y="483.702" fill="#000000" font-size="14" lengthAdjust="spacing" textLength="155.4492" font-family="sans-serif">phoneNumber : String</text><g data-visibility-modifier="IE_MANDATORY"><ellipse cx="147.63" cy="496.6522" rx="3" ry="3" fill="#000000" style="stroke:#000000;stroke-width:1;"/></g><text x="156.63" y="499.9989" fill="#000000" font-size="14" lengthAdjust="spacing" textLength="110.708" font-family="sans-serif">address : String</text></g><!--class book--><g class="entity" data-qualified-name="book" id="ent0003" data-source-line="26"><rect x="609.25" y="163.89" width="194.2051" height="145.7813" fill="#F1F1F1" style="stroke:#181818;stroke-width:0.5;" rx="2.5" ry="2.5"/><ellipse cx="684.6812" cy="179.89" rx="11" ry="11" fill="#ADD1B2" style="stroke:#181818;stroke-width:1;"/><path d="M688.7905,185.89 L681.0718,185.89 L681.0718,173.4994 L688.7905,173.4994 L688.7905,175.6556 L683.5249,175.6556 L683.5249,178.3275 L688.2905,178.3275 L688.2905,180.4838 L683.5249,180.4838 L683.5249,183.7338 L688.7905,183.7338 L688.7905,185.89 Z " fill="#000000"/><text x="705.1812" y="184.7367" fill="#000000" font-size="14" lengthAdjust="spacing" textLength="34.8428" font-family="sans-serif">Book</text><line x1="610.25" y1="195.89" x2="802.4551" y2="195.89" style="stroke:#181818;stroke-width:0.5;"/><g data-visibility-modifier="IE_MANDATORY"><ellipse cx="620.25" cy="209.5384" rx="3" ry="3" fill="#000000" style="stroke:#000000;stroke-width:1;"/></g><text x="629.25" y="212.8851" fill="#000000" font-size="14" lengthAdjust="spacing" textLength="99.7227" font-family="sans-serif">id : Long «PK»</text><line x1="610.25" y1="220.1869" x2="802.4551" y2="220.1869" style="stroke:#181818;stroke-width:1;"/><g data-visibility-modifier="IE_MANDATORY"><ellipse cx="620.25" cy="233.8353" rx="3" ry="3" fill="#000000" style="stroke:#000000;stroke-width:1;"/></g><text x="629.25" y="237.182" fill="#000000" font-size="14" lengthAdjust="spacing" textLength="82.7695" font-family="sans-serif">title : String</text><g data-visibility-modifier="IE_MANDATORY"><ellipse cx="620.25" cy="250.1322" rx="3" ry="3" fill="#000000" style="stroke:#000000;stroke-width:1;"/></g><text x="629.25" y="253.4789" fill="#000000" font-size="14" lengthAdjust="spacing" textLength="153.9316" font-family="sans-serif">isbn : String «unique»</text><g data-visibility-modifier="IE_MANDATORY"><ellipse cx="620.25" cy="266.4291" rx="3" ry="3" fill="#000000" style="stroke:#000000;stroke-width:1;"/></g><text x="629.25" y="269.7757" fill="#000000" font-size="14" lengthAdjust="spacing" textLength="110.9063" font-family="sans-serif">totalCopies : int</text><g data-visibility-modifier="IE_MANDATORY"><ellipse cx="620.25" cy="282.7259" rx="3" ry="3" fill="#000000" style="stroke:#000000;stroke-width:1;"/></g><text x="629.25" y="286.0726" fill="#000000" font-size="14" lengthAdjust="spacing" textLength="142.085" font-family="sans-serif">availableCopies : int</text><g data-visibility-modifier="IE_MANDATORY"><ellipse cx="620.25" cy="299.0228" rx="3" ry="3" fill="#000000" style="stroke:#000000;stroke-width:1;"/></g><text x="629.25" y="302.3695" fill="#000000" font-size="14" lengthAdjust="spacing" textLength="168.2051" font-family="sans-serif">category_id : Long «FK»</text></g><!--class author--><g class="entity" data-qualified-name="author" id="ent0004" data-source-line="36"><rect x="863.49" y="196.48" width="125.7227" height="80.5938" fill="#F1F1F1" style="stroke:#181818;stroke-width:0.5;" rx="2.5" ry="2.5"/><ellipse cx="899.455" cy="212.48" rx="11" ry="11" fill="#ADD1B2" style="stroke:#181818;stroke-width:1;"/><path d="M903.5644,218.48 L895.8456,218.48 L895.8456,206.0894 L903.5644,206.0894 L903.5644,208.2456 L898.2987,208.2456 L898.2987,210.9175 L903.0644,210.9175 L903.0644,213.0737 L898.2987,213.0737 L898.2987,216.3237 L903.5644,216.3237 L903.5644,218.48 Z " fill="#000000"/><text x="918.1139" y="217.3267" fill="#000000" font-size="14" lengthAdjust="spacing" textLength="47.1338" font-family="sans-serif">Author</text><line x1="864.49" y1="228.48" x2="988.2127" y2="228.48" style="stroke:#181818;stroke-width:0.5;"/><g data-visibility-modifier="IE_MANDATORY"><ellipse cx="874.49" cy="242.1284" rx="3" ry="3" fill="#000000" style="stroke:#000000;stroke-width:1;"/></g><text x="883.49" y="245.4751" fill="#000000" font-size="14" lengthAdjust="spacing" textLength="99.7227" font-family="sans-serif">id : Long «PK»</text><line x1="864.49" y1="252.7769" x2="988.2127" y2="252.7769" style="stroke:#181818;stroke-width:1;"/><g data-visibility-modifier="IE_MANDATORY"><ellipse cx="874.49" cy="266.4253" rx="3" ry="3" fill="#000000" style="stroke:#000000;stroke-width:1;"/></g><text x="883.49" y="269.772" fill="#000000" font-size="14" lengthAdjust="spacing" textLength="95.1016" font-family="sans-serif">name : String</text></g><!--class category--><g class="entity" data-qualified-name="category" id="ent0005" data-source-line="42"><rect x="611.01" y="7" width="190.6914" height="80.5938" fill="#F1F1F1" style="stroke:#181818;stroke-width:0.5;" rx="2.5" ry="2.5"/><ellipse cx="670.1306" cy="23" rx="11" ry="11" fill="#ADD1B2" style="stroke:#181818;stroke-width:1;"/><path d="M674.24,29 L666.5212,29 L666.5212,16.6094 L674.24,16.6094 L674.24,18.7656 L668.9744,18.7656 L668.9744,21.4375 L673.74,21.4375 L673.74,23.5938 L668.9744,23.5938 L668.9744,26.8438 L674.24,26.8438 L674.24,29 Z " fill="#000000"/><text x="690.6306" y="27.8467" fill="#000000" font-size="14" lengthAdjust="spacing" textLength="63.9502" font-family="sans-serif">Category</text><line x1="612.01" y1="39" x2="800.7014" y2="39" style="stroke:#181818;stroke-width:0.5;"/><g data-visibility-modifier="IE_MANDATORY"><ellipse cx="622.01" cy="52.6484" rx="3" ry="3" fill="#000000" style="stroke:#000000;stroke-width:1;"/></g><text x="631.01" y="55.9951" fill="#000000" font-size="14" lengthAdjust="spacing" textLength="99.7227" font-family="sans-serif">id : Long «PK»</text><line x1="612.01" y1="63.2969" x2="800.7014" y2="63.2969" style="stroke:#181818;stroke-width:1;"/><g data-visibility-modifier="IE_MANDATORY"><ellipse cx="622.01" cy="76.9453" rx="3" ry="3" fill="#000000" style="stroke:#000000;stroke-width:1;"/></g><text x="631.01" y="80.292" fill="#000000" font-size="14" lengthAdjust="spacing" textLength="164.6914" font-family="sans-serif">name : String «unique»</text></g><!--class loan--><g class="entity" data-qualified-name="loan" id="ent0006" data-source-line="48"><rect x="610.33" y="385.97" width="192.0518" height="145.7813" fill="#F1F1F1" style="stroke:#181818;stroke-width:0.5;" rx="2.5" ry="2.5"/><ellipse cx="685.1972" cy="401.97" rx="11" ry="11" fill="#ADD1B2" style="stroke:#181818;stroke-width:1;"/><path d="M689.3066,407.97 L681.5878,407.97 L681.5878,395.5794 L689.3066,395.5794 L689.3066,397.7356 L684.0409,397.7356 L684.0409,400.4075 L688.8066,400.4075 L688.8066,402.5637 L684.0409,402.5637 L684.0409,405.8137 L689.3066,405.8137 L689.3066,407.97 Z " fill="#000000"/><text x="705.6972" y="406.8167" fill="#000000" font-size="14" lengthAdjust="spacing" textLength="33.8174" font-family="sans-serif">Loan</text><line x1="611.33" y1="417.97" x2="801.3818" y2="417.97" style="stroke:#181818;stroke-width:0.5;"/><g data-visibility-modifier="IE_MANDATORY"><ellipse cx="621.33" cy="431.6184" rx="3" ry="3" fill="#000000" style="stroke:#000000;stroke-width:1;"/></g><text x="630.33" y="434.9651" fill="#000000" font-size="14" lengthAdjust="spacing" textLength="99.7227" font-family="sans-serif">id : Long «PK»</text><line x1="611.33" y1="442.2669" x2="801.3818" y2="442.2669" style="stroke:#181818;stroke-width:1;"/><g data-visibility-modifier="IE_MANDATORY"><ellipse cx="621.33" cy="455.9153" rx="3" ry="3" fill="#000000" style="stroke:#000000;stroke-width:1;"/></g><text x="630.33" y="459.262" fill="#000000" font-size="14" lengthAdjust="spacing" textLength="166.0518" font-family="sans-serif">borrowDate : LocalDate</text><g data-visibility-modifier="IE_MANDATORY"><ellipse cx="621.33" cy="472.2122" rx="3" ry="3" fill="#000000" style="stroke:#000000;stroke-width:1;"/></g><text x="630.33" y="475.5589" fill="#000000" font-size="14" lengthAdjust="spacing" textLength="143.4453" font-family="sans-serif">dueDate : LocalDate</text><text x="630.33" y="491.8557" fill="#000000" font-size="14" lengthAdjust="spacing" textLength="160.4326" font-family="sans-serif">returnDate : LocalDate</text><g data-visibility-modifier="IE_MANDATORY"><ellipse cx="621.33" cy="504.8059" rx="3" ry="3" fill="#000000" style="stroke:#000000;stroke-width:1;"/></g><text x="630.33" y="508.1526" fill="#000000" font-size="14" lengthAdjust="spacing" textLength="136.8691" font-family="sans-serif">user_id : Long «FK»</text><g data-visibility-modifier="IE_MANDATORY"><ellipse cx="621.33" cy="521.1028" rx="3" ry="3" fill="#000000" style="stroke:#000000;stroke-width:1;"/></g><text x="630.33" y="524.4495" fill="#000000" font-size="14" lengthAdjust="spacing" textLength="140.458" font-family="sans-serif">book_id : Long «FK»</text></g><!--class reservation--><g class="entity" data-qualified-name="reservation" id="ent0007" data-source-line="58"><rect x="352.96" y="394.12" width="222.7861" height="129.4844" fill="#F1F1F1" style="stroke:#181818;stroke-width:0.5;" rx="2.5" ry="2.5"/><ellipse cx="418.2603" cy="410.12" rx="11" ry="11" fill="#ADD1B2" style="stroke:#181818;stroke-width:1;"/><path d="M422.3697,416.12 L414.6509,416.12 L414.6509,403.7294 L422.3697,403.7294 L422.3697,405.8856 L417.104,405.8856 L417.104,408.5575 L421.8697,408.5575 L421.8697,410.7138 L417.104,410.7138 L417.104,413.9638 L422.3697,413.9638 L422.3697,416.12 Z " fill="#000000"/><text x="438.7603" y="414.9667" fill="#000000" font-size="14" lengthAdjust="spacing" textLength="83.6855" font-family="sans-serif">Reservation</text><line x1="353.96" y1="426.12" x2="574.7461" y2="426.12" style="stroke:#181818;stroke-width:0.5;"/><g data-visibility-modifier="IE_MANDATORY"><ellipse cx="363.96" cy="439.7684" rx="3" ry="3" fill="#000000" style="stroke:#000000;stroke-width:1;"/></g><text x="372.96" y="443.1151" fill="#000000" font-size="14" lengthAdjust="spacing" textLength="99.7227" font-family="sans-serif">id : Long «PK»</text><line x1="353.96" y1="450.4169" x2="574.7461" y2="450.4169" style="stroke:#181818;stroke-width:1;"/><g data-visibility-modifier="IE_MANDATORY"><ellipse cx="363.96" cy="464.0653" rx="3" ry="3" fill="#000000" style="stroke:#000000;stroke-width:1;"/></g><text x="372.96" y="467.412" fill="#000000" font-size="14" lengthAdjust="spacing" textLength="196.7861" font-family="sans-serif">reservationDate : LocalDate</text><g data-visibility-modifier="IE_MANDATORY"><ellipse cx="363.96" cy="480.3622" rx="3" ry="3" fill="#000000" style="stroke:#000000;stroke-width:1;"/></g><text x="372.96" y="483.7089" fill="#000000" font-size="14" lengthAdjust="spacing" textLength="184.9326" font-family="sans-serif">status : ReservationStatus</text><g data-visibility-modifier="IE_MANDATORY"><ellipse cx="363.96" cy="496.6591" rx="3" ry="3" fill="#000000" style="stroke:#000000;stroke-width:1;"/></g><text x="372.96" y="500.0057" fill="#000000" font-size="14" lengthAdjust="spacing" textLength="136.8691" font-family="sans-serif">user_id : Long «FK»</text><g data-visibility-modifier="IE_MANDATORY"><ellipse cx="363.96" cy="512.9559" rx="3" ry="3" fill="#000000" style="stroke:#000000;stroke-width:1;"/></g><text x="372.96" y="516.3026" fill="#000000" font-size="14" lengthAdjust="spacing" textLength="140.458" font-family="sans-serif">book_id : Long «FK»</text></g><!--class book_authors--><g class="entity" data-qualified-name="book_authors" id="ent0008" data-source-line="67"><rect x="837.12" y="418.56" width="178.4688" height="80.5938" fill="#F1F1F1" style="stroke:#181818;stroke-width:0.5;" rx="2.5" ry="2.5"/><ellipse cx="875.4813" cy="434.56" rx="11" ry="11" fill="#ADD1B2" style="stroke:#181818;stroke-width:1;"/><path d="M879.5907,440.56 L871.872,440.56 L871.872,428.1694 L879.5907,428.1694 L879.5907,430.3256 L874.3251,430.3256 L874.3251,432.9975 L879.0907,432.9975 L879.0907,435.1538 L874.3251,435.1538 L874.3251,438.4038 L879.5907,438.4038 L879.5907,440.56 Z " fill="#000000"/><text x="894.6727" y="439.4067" fill="#000000" font-size="14" lengthAdjust="spacing" textLength="94.5547" font-family="sans-serif">book_authors</text><line x1="838.12" y1="450.56" x2="1014.5888" y2="450.56" style="stroke:#181818;stroke-width:0.5;"/><g data-visibility-modifier="IE_MANDATORY"><ellipse cx="848.12" cy="464.2084" rx="3" ry="3" fill="#000000" style="stroke:#000000;stroke-width:1;"/></g><text x="857.12" y="467.5551" fill="#000000" font-size="14" lengthAdjust="spacing" textLength="140.458" font-family="sans-serif">book_id : Long «FK»</text><g data-visibility-modifier="IE_MANDATORY"><ellipse cx="848.12" cy="480.5053" rx="3" ry="3" fill="#000000" style="stroke:#000000;stroke-width:1;"/></g><text x="857.12" y="483.852" fill="#000000" font-size="14" lengthAdjust="spacing" textLength="152.4688" font-family="sans-serif">author_id : Long «FK»</text><line x1="838.12" y1="491.1538" x2="1014.5888" y2="491.1538" style="stroke:#181818;stroke-width:0.5;"/></g><!--class userrole--><g class="entity" data-qualified-name="userrole" id="ent0009" data-source-line="72"><rect x="7" y="410.41" width="94.7061" height="96.8906" fill="#F1F1F1" style="stroke:#181818;stroke-width:0.5;" rx="2.5" ry="2.5"/><ellipse cx="22" cy="426.41" rx="11" ry="11" fill="#EB937F" style="stroke:#181818;stroke-width:1;"/><path d="M26.1094,432.41 L18.3906,432.41 L18.3906,420.0194 L26.1094,420.0194 L26.1094,422.1756 L20.8438,422.1756 L20.8438,424.8475 L25.6094,424.8475 L25.6094,427.0037 L20.8438,427.0037 L20.8438,430.2537 L26.1094,430.2537 L26.1094,432.41 Z " fill="#000000"/><text x="36" y="431.2567" fill="#000000" font-size="14" lengthAdjust="spacing" textLength="62.7061" font-family="sans-serif">UserRole</text><line x1="8" y1="442.41" x2="100.7061" y2="442.41" style="stroke:#181818;stroke-width:0.5;"/><text x="13" y="459.4051" fill="#000000" font-size="14" lengthAdjust="spacing" textLength="47.0381" font-family="sans-serif">ADMIN</text><text x="13" y="475.702" fill="#000000" font-size="14" lengthAdjust="spacing" textLength="74.7441" font-family="sans-serif">LIBRARIAN</text><text x="13" y="491.9989" fill="#000000" font-size="14" lengthAdjust="spacing" textLength="61.1816" font-family="sans-serif">MEMBER</text><line x1="8" y1="499.3006" x2="100.7061" y2="499.3006" style="stroke:#181818;stroke-width:0.5;"/></g><!--class resstatus--><g class="entity" data-qualified-name="resstatus" id="ent0010" data-source-line="78"><rect x="384.2" y="591.75" width="160.2969" height="96.8906" fill="#F1F1F1" style="stroke:#181818;stroke-width:0.5;" rx="2.5" ry="2.5"/><ellipse cx="399.2" cy="607.75" rx="11" ry="11" fill="#EB937F" style="stroke:#181818;stroke-width:1;"/><path d="M403.3094,613.75 L395.5906,613.75 L395.5906,601.3594 L403.3094,601.3594 L403.3094,603.5156 L398.0438,603.5156 L398.0438,606.1875 L402.8094,606.1875 L402.8094,608.3438 L398.0438,608.3438 L398.0438,611.5938 L403.3094,611.5938 L403.3094,613.75 Z " fill="#000000"/><text x="413.2" y="612.5967" fill="#000000" font-size="14" lengthAdjust="spacing" textLength="128.2969" font-family="sans-serif">ReservationStatus</text><line x1="385.2" y1="623.75" x2="543.4969" y2="623.75" style="stroke:#181818;stroke-width:0.5;"/><text x="390.2" y="640.7451" fill="#000000" font-size="14" lengthAdjust="spacing" textLength="50.4561" font-family="sans-serif">ACTIVE</text><text x="390.2" y="657.042" fill="#000000" font-size="14" lengthAdjust="spacing" textLength="83.6719" font-family="sans-serif">CANCELLED</text><text x="390.2" y="673.3389" fill="#000000" font-size="14" lengthAdjust="spacing" textLength="86.1396" font-family="sans-serif">COMPLETED</text><line x1="385.2" y1="680.6406" x2="543.4969" y2="680.6406" style="stroke:#181818;stroke-width:0.5;"/></g><!--link user to profile--><g class="link" data-entity-1="ent0001" data-entity-2="ent0002" id="lnk11" data-source-line="84" data-link-type="association"><path d="M271.77,334.15 C271.77,362.83 271.77,377.53 271.77,402.16" style="stroke:#181818;stroke-width:1;" fill="none" id="user-profile" codeLine="84"/><line x1="267.77" y1="330.15" x2="275.77" y2="330.15" style="stroke:#181818;stroke-width:1;"/><line x1="267.77" y1="333.15" x2="275.77" y2="333.15" style="stroke:#181818;stroke-width:1;"/><line x1="271.77" y1="334.15" x2="271.77" y2="326.15" style="stroke:#181818;stroke-width:1;"/><line x1="275.77" y1="406.16" x2="267.77" y2="406.16" style="stroke:#181818;stroke-width:1;"/><line x1="275.77" y1="403.16" x2="267.77" y2="403.16" style="stroke:#181818;stroke-width:1;"/><line x1="271.77" y1="402.16" x2="271.77" y2="410.16" style="stroke:#181818;stroke-width:1;"/><text x="250.77" y="364.2269" fill="#000000" font-size="13" lengthAdjust="spacing" textLength="20.9219" font-family="sans-serif">1:1</text></g><!--link user to loan--><g class="link" data-entity-1="ent0001" data-entity-2="ent0006" id="lnk12" data-source-line="85" data-link-type="crowfoot"><path d="M423.81,334.28 C423.81,368.13 423.81,390.64 423.81,390.64 C423.81,390.64 510.06,390.64 591.91,390.64" style="stroke:#181818;stroke-width:1;" fill="none" id="user-loan" codeLine="85"/><line x1="419.81" y1="330.28" x2="427.81" y2="330.28" style="stroke:#181818;stroke-width:1;"/><line x1="419.81" y1="333.28" x2="427.81" y2="333.28" style="stroke:#181818;stroke-width:1;"/><line x1="423.81" y1="334.28" x2="423.81" y2="326.28" style="stroke:#181818;stroke-width:1;"/><line x1="601.91" y1="390.64" x2="609.91" y2="384.64" style="stroke:#181818;stroke-width:1;"/><line x1="601.91" y1="390.64" x2="609.91" y2="396.64" style="stroke:#181818;stroke-width:1;"/><line x1="601.91" y1="390.64" x2="609.91" y2="390.64" style="stroke:#181818;stroke-width:1;"/><ellipse cx="595.91" cy="390.64" rx="4" ry="4" fill="none" style="stroke:#181818;stroke-width:1;"/><text x="461.68" y="386.7069" fill="#000000" font-size="13" lengthAdjust="spacing" textLength="22.3755" font-family="sans-serif">1:N</text></g><!--link user to reservation--><g class="link" data-entity-1="ent0001" data-entity-2="ent0007" id="lnk13" data-source-line="86" data-link-type="crowfoot"><path d="M388.39,334.15 C388.39,356.81 388.39,354.72 388.39,375.91" style="stroke:#181818;stroke-width:1;" fill="none" id="user-reservation" codeLine="86"/><line x1="384.39" y1="330.15" x2="392.39" y2="330.15" style="stroke:#181818;stroke-width:1;"/><line x1="384.39" y1="333.15" x2="392.39" y2="333.15" style="stroke:#181818;stroke-width:1;"/><line x1="388.39" y1="334.15" x2="388.39" y2="326.15" style="stroke:#181818;stroke-width:1;"/><line x1="388.39" y1="385.91" x2="394.39" y2="393.91" style="stroke:#181818;stroke-width:1;"/><line x1="388.39" y1="385.91" x2="382.39" y2="393.91" style="stroke:#181818;stroke-width:1;"/><line x1="388.39" y1="385.91" x2="388.39" y2="393.91" style="stroke:#181818;stroke-width:1;"/><ellipse cx="388.39" cy="379.91" rx="4" ry="4" fill="none" style="stroke:#181818;stroke-width:1;"/><text x="365.39" y="356.0969" fill="#000000" font-size="13" lengthAdjust="spacing" textLength="22.3755" font-family="sans-serif">1:N</text></g><!--link book to loan--><g class="link" data-entity-1="ent0003" data-entity-2="ent0006" id="lnk14" data-source-line="87" data-link-type="crowfoot"><path d="M706.35,318.11 C706.35,342.37 706.35,343.35 706.35,367.6" style="stroke:#181818;stroke-width:1;" fill="none" id="book-loan" codeLine="87"/><line x1="702.35" y1="314.11" x2="710.35" y2="314.11" style="stroke:#181818;stroke-width:1;"/><line x1="702.35" y1="317.11" x2="710.35" y2="317.11" style="stroke:#181818;stroke-width:1;"/><line x1="706.35" y1="318.11" x2="706.35" y2="310.11" style="stroke:#181818;stroke-width:1;"/><line x1="706.35" y1="377.6" x2="712.35" y2="385.6" style="stroke:#181818;stroke-width:1;"/><line x1="706.35" y1="377.6" x2="700.35" y2="385.6" style="stroke:#181818;stroke-width:1;"/><line x1="706.35" y1="377.6" x2="706.35" y2="385.6" style="stroke:#181818;stroke-width:1;"/><ellipse cx="706.35" cy="371.6" rx="4" ry="4" fill="none" style="stroke:#181818;stroke-width:1;"/><text x="683.35" y="343.9269" fill="#000000" font-size="13" lengthAdjust="spacing" textLength="22.3755" font-family="sans-serif">1:N</text></g><!--link book to reservation--><g class="link" data-entity-1="ent0003" data-entity-2="ent0007" id="lnk15" data-source-line="88" data-link-type="crowfoot"><path d="M600.88,237.64 C554.7,237.64 517.49,237.64 517.49,237.64 C517.49,237.64 517.49,310.43 517.49,375.68" style="stroke:#181818;stroke-width:1;" fill="none" id="book-reservation" codeLine="88"/><line x1="604.88" y1="233.64" x2="604.88" y2="241.64" style="stroke:#181818;stroke-width:1;"/><line x1="601.88" y1="233.64" x2="601.88" y2="241.64" style="stroke:#181818;stroke-width:1;"/><line x1="600.88" y1="237.64" x2="608.88" y2="237.64" style="stroke:#181818;stroke-width:1;"/><line x1="517.49" y1="385.68" x2="523.49" y2="393.68" style="stroke:#181818;stroke-width:1;"/><line x1="517.49" y1="385.68" x2="511.49" y2="393.68" style="stroke:#181818;stroke-width:1;"/><line x1="517.49" y1="385.68" x2="517.49" y2="393.68" style="stroke:#181818;stroke-width:1;"/><ellipse cx="517.49" cy="379.68" rx="4" ry="4" fill="none" style="stroke:#181818;stroke-width:1;"/><text x="494.49" y="266.0369" fill="#000000" font-size="13" lengthAdjust="spacing" textLength="22.3755" font-family="sans-serif">1:N</text></g><!--link category to book--><g class="link" data-entity-1="ent0005" data-entity-2="ent0003" id="lnk16" data-source-line="89" data-link-type="crowfoot"><path d="M706.35,95.95 C706.35,118.02 706.35,119.99 706.35,145.7" style="stroke:#181818;stroke-width:1;" fill="none" id="category-book" codeLine="89"/><line x1="702.35" y1="91.95" x2="710.35" y2="91.95" style="stroke:#181818;stroke-width:1;"/><line x1="702.35" y1="94.95" x2="710.35" y2="94.95" style="stroke:#181818;stroke-width:1;"/><line x1="706.35" y1="95.95" x2="706.35" y2="87.95" style="stroke:#181818;stroke-width:1;"/><line x1="706.35" y1="155.7" x2="712.35" y2="163.7" style="stroke:#181818;stroke-width:1;"/><line x1="706.35" y1="155.7" x2="700.35" y2="163.7" style="stroke:#181818;stroke-width:1;"/><line x1="706.35" y1="155.7" x2="706.35" y2="163.7" style="stroke:#181818;stroke-width:1;"/><ellipse cx="706.35" cy="149.7" rx="4" ry="4" fill="none" style="stroke:#181818;stroke-width:1;"/><text x="683.35" y="121.8869" fill="#000000" font-size="13" lengthAdjust="spacing" textLength="22.3755" font-family="sans-serif">1:N</text></g><!--link book to book_authors--><g class="link" data-entity-1="ent0003" data-entity-2="ent0008" id="lnk17" data-source-line="90" data-link-type="crowfoot"><path d="M811.57,293.64 C837.42,293.64 850.31,293.64 850.31,293.64 C850.31,293.64 850.31,351.53 850.31,400.44" style="stroke:#181818;stroke-width:1;" fill="none" id="book-book_authors" codeLine="90"/><line x1="807.57" y1="297.64" x2="807.57" y2="289.64" style="stroke:#181818;stroke-width:1;"/><line x1="810.57" y1="297.64" x2="810.57" y2="289.64" style="stroke:#181818;stroke-width:1;"/><line x1="811.57" y1="293.64" x2="803.57" y2="293.64" style="stroke:#181818;stroke-width:1;"/><line x1="850.31" y1="410.44" x2="856.31" y2="418.44" style="stroke:#181818;stroke-width:1;"/><line x1="850.31" y1="410.44" x2="844.31" y2="418.44" style="stroke:#181818;stroke-width:1;"/><line x1="850.31" y1="410.44" x2="850.31" y2="418.44" style="stroke:#181818;stroke-width:1;"/><ellipse cx="850.31" cy="404.44" rx="4" ry="4" fill="none" style="stroke:#181818;stroke-width:1;"/><text x="827.31" y="328.7369" fill="#000000" font-size="13" lengthAdjust="spacing" textLength="22.3755" font-family="sans-serif">1:N</text></g><!--link author to book_authors--><g class="link" data-entity-1="ent0004" data-entity-2="ent0008" id="lnk18" data-source-line="91" data-link-type="crowfoot"><path d="M926.35,285.51 C926.35,325.58 926.35,360.4 926.35,400.38" style="stroke:#181818;stroke-width:1;" fill="none" id="author-book_authors" codeLine="91"/><line x1="922.35" y1="281.51" x2="930.35" y2="281.51" style="stroke:#181818;stroke-width:1;"/><line x1="922.35" y1="284.51" x2="930.35" y2="284.51" style="stroke:#181818;stroke-width:1;"/><line x1="926.35" y1="285.51" x2="926.35" y2="277.51" style="stroke:#181818;stroke-width:1;"/><line x1="926.35" y1="410.38" x2="932.35" y2="418.38" style="stroke:#181818;stroke-width:1;"/><line x1="926.35" y1="410.38" x2="920.35" y2="418.38" style="stroke:#181818;stroke-width:1;"/><line x1="926.35" y1="410.38" x2="926.35" y2="418.38" style="stroke:#181818;stroke-width:1;"/><ellipse cx="926.35" cy="404.38" rx="4" ry="4" fill="none" style="stroke:#181818;stroke-width:1;"/><text x="903.35" y="344.0169" fill="#000000" font-size="13" lengthAdjust="spacing" textLength="22.3755" font-family="sans-serif">1:N</text></g><!--link user to userrole--><g class="link" data-entity-1="ent0001" data-entity-2="ent0009" id="lnk19" data-source-line="93" data-link-type="association"><path d="M225.21,237.64 C145.48,237.64 54.35,237.64 54.35,237.64 C54.35,237.64 54.35,344.89 54.35,410.04" style="stroke:#181818;stroke-width:1;stroke-dasharray:7,7;" fill="none" id="user-userrole" codeLine="93"/></g><!--link reservation to resstatus--><g class="link" data-entity-1="ent0007" data-entity-2="ent0010" id="lnk20" data-source-line="94" data-link-type="association"><path d="M464.35,524.07 C464.35,546.31 464.35,570.77 464.35,591.48" style="stroke:#181818;stroke-width:1;stroke-dasharray:7,7;" fill="none" id="reservation-resstatus" codeLine="94"/></g><?plantuml-src hLJVRzem47xFNs7HjsfKgleqL5M2a4geWQ6qs-la48zQINoPVxH3PV_x7Din1W92rU3bV7VVTtTVpXObPGtck4OLPKHk6eA0orU8X0yG9gdSe8y8wTy4hyer1yMA62hWwEhnQ_ktCU05uSv_PtxHtoXo-C5tGVW0OO6KDXpTDQ856g4Ks1hTto-V7XwCUpXqKOPhekFFabEsTZvIOrfvfuOfHdyhug3NgC52lEjM3d4SgfQhRIFJflFM-8_kcyDxIcigTPmosHLYEAz8ovE31c3M5U3mYrRaPzZwuzCNvFiu67ffyyti3dlX-CqhCB9GTQu5EvW65mKdGkpSGT49G6cgwRxB2qjfP7KaDHKvEwEq18ch61fAn9vm-4r_eLQxdjWAIx86lZbGRr-riT8hQ9S56_DJwn8GngwgeUnQ-0nfA4B0dm9cXhlIneMykLcxgMx6PArmrTekM2ZI6-54AivEWDgBTQnhLmtAivfdHAFViAHW9-6xyuK31OWJ3Gg9fMht8IZsR7p_OmAJOFT5-FNl77w6VXgtk2RtH15Ls-lSFXx-7JEFYgKUJ-UpXR7IsIGRPxEnFSsJ-IJ9TXn7itToEtKSM_mo-v4OCnuluYHDawazVPilq-H5dpIZUKgts-5mk_LFomWDRaUtWrqCFknQci1YFn1-vIvkNeq-O1Ze0_gBvN9CVXzuxyDq2UwcdqknhT_SUEcZi0tjzoh-0m00?></g></svg>